<svg width="62" height="62" viewBox="0 0 62 62" fill="none" xmlns="http://www.w3.org/2000/svg">
<g id="fa6-solid:magnifying-glass" clip-path="url(#clip0_432_2886)">
<path id="Vector" d="M50.3751 25.1875C50.3751 30.7457 48.5708 35.8801 45.5314 40.0457L60.8618 55.3883C62.3755 56.902 62.3755 59.3602 60.8618 60.8738C59.3482 62.3875 56.89 62.3875 55.3763 60.8738L40.0458 45.5312C35.8802 48.5828 30.7458 50.375 25.1876 50.375C11.2739 50.375 0.00012207 39.1012 0.00012207 25.1875C0.00012207 11.2738 11.2739 0 25.1876 0C39.1013 0 50.3751 11.2738 50.3751 25.1875ZM25.1876 42.625C27.4775 42.625 29.7451 42.174 31.8607 41.2976C33.9763 40.4213 35.8986 39.1369 37.5178 37.5177C39.137 35.8985 40.4215 33.9762 41.2978 31.8605C42.1741 29.7449 42.6251 27.4774 42.6251 25.1875C42.6251 22.8976 42.1741 20.6301 41.2978 18.5145C40.4215 16.3988 39.137 14.4765 37.5178 12.8573C35.8986 11.2381 33.9763 9.95367 31.8607 9.07735C29.7451 8.20103 27.4775 7.75 25.1876 7.75C22.8977 7.75 20.6302 8.20103 18.5146 9.07735C16.399 9.95367 14.4767 11.2381 12.8574 12.8573C11.2382 14.4765 9.95379 16.3988 9.07747 18.5145C8.20116 20.6301 7.75012 22.8976 7.75012 25.1875C7.75012 27.4774 8.20116 29.7449 9.07747 31.8605C9.95379 33.9762 11.2382 35.8985 12.8574 37.5177C14.4767 39.1369 16.399 40.4213 18.5146 41.2976C20.6302 42.174 22.8977 42.625 25.1876 42.625Z" fill="white"/>
</g>
<defs>
<clipPath id="clip0_432_2886">
<rect width="62" height="62" fill="white"/>
</clipPath>
</defs>
</svg>
