<svg width="80" height="80" viewBox="0 0 80 80" fill="none" xmlns="http://www.w3.org/2000/svg">
<g id="uil:qrcode-scan">
<path id="Vector" d="M26.6667 70.0002H13.3333C12.4493 70.0002 11.6014 69.649 10.9763 69.0239C10.3512 68.3987 10 67.5509 10 66.6668V53.3335C10 52.4494 9.64882 51.6016 9.0237 50.9765C8.39858 50.3514 7.55073 50.0002 6.66668 50.0002C5.78262 50.0002 4.93478 50.3514 4.30965 50.9765C3.68453 51.6016 3.33334 52.4494 3.33334 53.3335V66.6668C3.33334 69.319 4.38691 71.8625 6.26228 73.7379C8.13764 75.6133 10.6812 76.6668 13.3333 76.6668H26.6667C27.5507 76.6668 28.3986 76.3157 29.0237 75.6905C29.6488 75.0654 30 74.2176 30 73.3335C30 72.4494 29.6488 71.6016 29.0237 70.9765C28.3986 70.3514 27.5507 70.0002 26.6667 70.0002ZM73.3333 50.0002C72.4493 50.0002 71.6014 50.3514 70.9763 50.9765C70.3512 51.6016 70 52.4494 70 53.3335V66.6668C70 67.5509 69.6488 68.3987 69.0237 69.0239C68.3986 69.649 67.5507 70.0002 66.6667 70.0002H53.3333C52.4493 70.0002 51.6014 70.3514 50.9763 70.9765C50.3512 71.6016 50 72.4494 50 73.3335C50 74.2176 50.3512 75.0654 50.9763 75.6905C51.6014 76.3157 52.4493 76.6668 53.3333 76.6668H66.6667C69.3188 76.6668 71.8624 75.6133 73.7377 73.7379C75.6131 71.8625 76.6667 69.319 76.6667 66.6668V53.3335C76.6667 52.4494 76.3155 51.6016 75.6904 50.9765C75.0653 50.3514 74.2174 50.0002 73.3333 50.0002ZM66.6667 3.3335H53.3333C52.4493 3.3335 51.6014 3.68469 50.9763 4.30981C50.3512 4.93493 50 5.78277 50 6.66683C50 7.55088 50.3512 8.39873 50.9763 9.02385C51.6014 9.64897 52.4493 10.0002 53.3333 10.0002H66.6667C67.5507 10.0002 68.3986 10.3514 69.0237 10.9765C69.6488 11.6016 70 12.4494 70 13.3335V26.6668C70 27.5509 70.3512 28.3987 70.9763 29.0239C71.6014 29.649 72.4493 30.0002 73.3333 30.0002C74.2174 30.0002 75.0653 29.649 75.6904 29.0239C76.3155 28.3987 76.6667 27.5509 76.6667 26.6668V13.3335C76.6667 10.6813 75.6131 8.13779 73.7377 6.26243C71.8624 4.38706 69.3188 3.3335 66.6667 3.3335ZM6.66668 30.0002C7.55073 30.0002 8.39858 29.649 9.0237 29.0239C9.64882 28.3987 10 27.5509 10 26.6668V13.3335C10 12.4494 10.3512 11.6016 10.9763 10.9765C11.6014 10.3514 12.4493 10.0002 13.3333 10.0002H26.6667C27.5507 10.0002 28.3986 9.64897 29.0237 9.02385C29.6488 8.39873 30 7.55088 30 6.66683C30 5.78277 29.6488 4.93493 29.0237 4.30981C28.3986 3.68469 27.5507 3.3335 26.6667 3.3335H13.3333C10.6812 3.3335 8.13764 4.38706 6.26228 6.26243C4.38691 8.13779 3.33334 10.6813 3.33334 13.3335V26.6668C3.33334 27.5509 3.68453 28.3987 4.30965 29.0239C4.93478 29.649 5.78262 30.0002 6.66668 30.0002ZM33.3333 16.6668H20C19.116 16.6668 18.2681 17.018 17.643 17.6431C17.0179 18.2683 16.6667 19.1161 16.6667 20.0002V33.3335C16.6667 34.2176 17.0179 35.0654 17.643 35.6905C18.2681 36.3156 19.116 36.6668 20 36.6668H33.3333C34.2174 36.6668 35.0652 36.3156 35.6904 35.6905C36.3155 35.0654 36.6667 34.2176 36.6667 33.3335V20.0002C36.6667 19.1161 36.3155 18.2683 35.6904 17.6431C35.0652 17.018 34.2174 16.6668 33.3333 16.6668ZM30 30.0002H23.3333V23.3335H30V30.0002ZM46.6667 36.6668H60C60.8841 36.6668 61.7319 36.3156 62.357 35.6905C62.9822 35.0654 63.3333 34.2176 63.3333 33.3335V20.0002C63.3333 19.1161 62.9822 18.2683 62.357 17.6431C61.7319 17.018 60.8841 16.6668 60 16.6668H46.6667C45.7826 16.6668 44.9348 17.018 44.3097 17.6431C43.6845 18.2683 43.3333 19.1161 43.3333 20.0002V33.3335C43.3333 34.2176 43.6845 35.0654 44.3097 35.6905C44.9348 36.3156 45.7826 36.6668 46.6667 36.6668ZM50 23.3335H56.6667V30.0002H50V23.3335ZM33.3333 43.3335H20C19.116 43.3335 18.2681 43.6847 17.643 44.3098C17.0179 44.9349 16.6667 45.7828 16.6667 46.6668V60.0002C16.6667 60.8842 17.0179 61.7321 17.643 62.3572C18.2681 62.9823 19.116 63.3335 20 63.3335H33.3333C34.2174 63.3335 35.0652 62.9823 35.6904 62.3572C36.3155 61.7321 36.6667 60.8842 36.6667 60.0002V46.6668C36.6667 45.7828 36.3155 44.9349 35.6904 44.3098C35.0652 43.6847 34.2174 43.3335 33.3333 43.3335ZM30 56.6668H23.3333V50.0002H30V56.6668ZM46.6667 53.3335C47.5507 53.3335 48.3986 52.9823 49.0237 52.3572C49.6488 51.7321 50 50.8842 50 50.0002C50.8841 50.0002 51.7319 49.649 52.357 49.0239C52.9822 48.3987 53.3333 47.5509 53.3333 46.6668C53.3333 45.7828 52.9822 44.9349 52.357 44.3098C51.7319 43.6847 50.8841 43.3335 50 43.3335H46.6667C45.7826 43.3335 44.9348 43.6847 44.3097 44.3098C43.6845 44.9349 43.3333 45.7828 43.3333 46.6668V50.0002C43.3333 50.8842 43.6845 51.7321 44.3097 52.3572C44.9348 52.9823 45.7826 53.3335 46.6667 53.3335ZM60 43.3335C59.116 43.3335 58.2681 43.6847 57.643 44.3098C57.0179 44.9349 56.6667 45.7828 56.6667 46.6668V56.6668C55.7826 56.6668 54.9348 57.018 54.3097 57.6431C53.6845 58.2683 53.3333 59.1161 53.3333 60.0002C53.3333 60.8842 53.6845 61.7321 54.3097 62.3572C54.9348 62.9823 55.7826 63.3335 56.6667 63.3335H60C60.8841 63.3335 61.7319 62.9823 62.357 62.3572C62.9822 61.7321 63.3333 60.8842 63.3333 60.0002V46.6668C63.3333 45.7828 62.9822 44.9349 62.357 44.3098C61.7319 43.6847 60.8841 43.3335 60 43.3335ZM46.6667 56.6668C46.0074 56.6668 45.3629 56.8623 44.8148 57.2286C44.2666 57.5949 43.8394 58.1155 43.5871 58.7246C43.3348 59.3336 43.2688 60.0039 43.3974 60.6505C43.526 61.2971 43.8435 61.891 44.3097 62.3572C44.7758 62.8234 45.3698 63.1408 46.0164 63.2695C46.663 63.3981 47.3332 63.3321 47.9423 63.0798C48.5514 62.8275 49.072 62.4002 49.4382 61.8521C49.8045 61.3039 50 60.6594 50 60.0002C50 59.1161 49.6488 58.2683 49.0237 57.6431C48.3986 57.018 47.5507 56.6668 46.6667 56.6668Z" fill="#15191F"/>
</g>
</svg>
